<?xml version="1.0" encoding="UTF-8"?>
<svg id="_Слой_1" data-name="Слой 1" xmlns="http://www.w3.org/2000/svg" viewBox="0 0 498 84">
  <defs>
    <style>
      .cls-1 {
        stroke-width: 0px;
      }
    </style>
  </defs>
  <path class="cls-1" d="M345.29.98c1.38.14,2.76.28,4.14.41,8.74.82,16.85,3.46,24.11,8.43,8.67,5.94,14.75,13.83,16.91,24.25,2.73,13.2-.78,24.76-10.1,34.45-7.66,7.95-17.24,12.23-28.08,13.79-9.26,1.33-18.43.87-27.36-2.07-9.94-3.27-18.18-8.91-23.98-17.77-3.69-5.63-5.75-11.83-5.95-18.57-.48-16.53,7.33-28.31,21.33-36.35,7.24-4.16,15.19-6.03,23.51-6.39.32-.01.64-.12.96-.18,1.51,0,3.01,0,4.52,0ZM343.15,13.08c-.72,0-1.44-.02-2.15,0-.72.03-1.43.09-2.15.15-7.2.58-13.86,2.7-19.79,6.89-10.44,7.38-14.39,20.19-9.74,31.7,3.07,7.59,8.82,12.52,16.17,15.72,8.58,3.73,17.54,4.32,26.63,2.63,7.68-1.43,14.49-4.7,19.79-10.59,5.56-6.18,7.76-13.45,6.49-21.68-1.14-7.42-5.07-13.16-11.06-17.54-7.19-5.26-15.41-7.29-24.21-7.29Z"/>
  <path class="cls-1" d="M46.51.98c1.48.14,2.96.29,4.44.43,6,.56,11.78,1.95,17.19,4.68,4.3,2.17,8.02,5.05,10.98,9-2.72,2.98-5.43,5.95-8.03,8.8-1.1-1.01-2.14-1.98-3.2-2.94-5.49-5.01-12.01-7.72-19.35-8.52-5.73-.62-11.4-.31-16.94,1.43-2.33.73-4.52,1.74-6.42,3.31-3.97,3.29-4.1,8.9-.28,12.37,2.56,2.32,5.71,3.54,8.99,4.21,4.88.99,9.81,1.75,14.74,2.49,7.2,1.07,14.42,2,21.24,4.73,3.01,1.21,5.76,2.81,8.06,5.14,3.37,3.42,4.31,7.63,4.11,12.23-.35,8.09-4.49,13.91-11.09,18.19-4.9,3.17-10.36,4.9-16.1,5.72-9.37,1.33-18.69,1.02-27.87-1.42-8.23-2.19-15.41-6.24-21.38-12.36-.31-.31-.65-.59-.98-.88,0-.07,0-.14,0-.2,1.4-1.79,2.81-3.58,4.21-5.38,1.2-1.56,2.38-3.13,3.56-4.67,1.76,1.59,3.39,3.15,5.12,4.6,12.1,10.12,25.78,12.26,40.69,7.91,3.22-.94,6.15-2.52,8.35-5.15,3.48-4.15,2.56-9.37-2.09-12.08-.68-.4-1.39-.74-2.11-1.04-4.42-1.77-9.07-2.56-13.76-3.05-5.54-.57-11.07-1.19-16.51-2.48-5.21-1.24-10.27-2.84-14.82-5.76-8.9-5.7-10.21-15.5-7.12-23.19,2.05-5.09,5.99-8.46,10.75-10.96,5.28-2.77,10.95-4.15,16.86-4.73,1.42-.14,2.83-.28,4.25-.42,1.51,0,3.01,0,4.52,0Z"/>
  <path class="cls-1" d="M493.38,81.88c-5.12,0-10.01.01-14.9-.03-.32,0-.71-.34-.93-.63-5.59-7.38-11.16-14.77-16.74-22.16-1.48-1.96-2.95-3.94-4.47-5.87-.25-.32-.76-.64-1.14-.64-8.66-.04-17.32-.03-25.97-.02-.16,0-.33.04-.61.07v29.22h-12.29V2.23c.38,0,.72,0,1.06,0,15.33,0,30.66,0,45.99,0,11.24,0,21.56,7.44,24.44,17.93,2.61,9.52-.06,17.71-7.12,24.51-2.82,2.71-6.12,4.68-9.78,6.06-.25.09-.49.21-.81.34,7.75,10.26,15.47,20.46,23.28,30.81ZM428.66,40.57c.31.03.51.06.72.06,10.23,0,20.46.12,30.68-.04,6.09-.1,10.92-2.86,14.04-8.17,2.5-4.26,1.96-9.17-1.34-12.8-3.38-3.72-7.75-5.46-12.7-5.51-10.19-.1-20.39-.03-30.58-.03-.26,0-.53.04-.83.07v26.43Z"/>
  <path class="cls-1" d="M175.05,81.8v-33.23h-55.69v33.24h-12.28V2.27h12.25v34.32h55.66V2.29h12.29v79.5h-12.22Z"/>
  <path class="cls-1" d="M239.41,14.08h-30.2V2.31h73.47v11.77h-30.92v67.71h-12.35V14.08Z"/>
</svg>